<svg xmlns="http://www.w3.org/2000/svg" viewBox="0 0 405 405"><path data-name="fill" d="M314.82 405a20.51 20.51 0 0 1-9.73-2.5l-102.15-56.21a.86.86 0 0 0-.85 0L99.94 402.47a19.94 19.94 0 0 1-22-1.67 22.19 22.19 0 0 1-8.28-21.33l19.5-119a1 1 0 0 0-.25-.84l-82.6-84.21A22.4 22.4 0 0 1 1 153.09a21.05 21.05 0 0 1 16.81-14.81l114.23-17.37a.77.77 0 0 0 .65-.52l51.09-108.24a20.48 20.48 0 0 1 37.42 0l51.07 108.24a1.06 1.06 0 0 0 .65.52l114.23 17.37A20.92 20.92 0 0 1 404 153.09a22.29 22.29 0 0 1-5.29 22.33l-82.55 84.29a1 1 0 0 0-.25.83l19.5 119a22.23 22.23 0 0 1-8.28 21.33 20.46 20.46 0 0 1-12.31 4.13Z" style="fill:#2a2941;fill-rule:evenodd"/><path d="M314.82 405a20.51 20.51 0 0 1-9.73-2.5l-102.15-56.21a.86.86 0 0 0-.85 0L99.94 402.47a19.94 19.94 0 0 1-22-1.67 22.19 22.19 0 0 1-8.28-21.33l19.5-119a1 1 0 0 0-.25-.84l-82.6-84.21A22.4 22.4 0 0 1 1 153.09a21.05 21.05 0 0 1 16.81-14.81l114.23-17.37a.77.77 0 0 0 .65-.52l51.09-108.24a20.48 20.48 0 0 1 37.42 0l51.07 108.24a1.06 1.06 0 0 0 .65.52l114.23 17.37A20.92 20.92 0 0 1 404 153.09a22.29 22.29 0 0 1-5.29 22.33l-82.55 84.29a1 1 0 0 0-.25.83l19.5 119a22.23 22.23 0 0 1-8.28 21.33 20.46 20.46 0 0 1-12.31 4.13ZM204.16 56.43a.71.71 0 0 0-1.3 0L161 144.91a17.27 17.27 0 0 1-12.87 9.77l-93.55 14.2a.66.66 0 0 0-.57.51.81.81 0 0 0 .16.77L121.89 239a18.13 18.13 0 0 1 4.9 15.78l-16 97.27a.63.63 0 0 0 .29.73.66.66 0 0 0 .77 0l83.66-45.93a16.94 16.94 0 0 1 8-2 16.42 16.42 0 0 1 7.92 2l83.71 45.93a.72.72 0 0 0 1.06-.77l-16-97.31a18.4 18.4 0 0 1 4.9-15.78l67.69-68.87a.65.65 0 0 0 .16-.77c-.16-.43-.41-.51-.57-.51l-93.55-14.2a17.16 17.16 0 0 1-12.83-9.66" style="fill:#2a2941;fill-rule:evenodd"/></svg>